<svg data-v-423bf9ae="" xmlns="http://www.w3.org/2000/svg" viewBox="0 0 400 90" class="iconLeft"><!----><!----><!----><g data-v-423bf9ae="" id="1efacacd-fed6-4499-9cdf-483ee2e13dcb" fill="white" transform="matrix(4.424778624136357,0,0,4.424778624136357,109.9748332096465,16.283184405828873)"><path d="M0 0L0 10.50L4.96 10.50L4.96 10.50Q7 10.50 7 8.75L7 8.75L7 1.75L7 1.75Q7 0 4.96 0L4.96 0L0 0ZM4.38 9.33L1.46 9.33L1.46 1.17L4.38 1.17L4.38 1.17Q5.54 1.17 5.54 2.04L5.54 2.04L5.54 8.46L5.54 8.46Q5.54 9.33 4.38 9.33L4.38 9.33ZM9.63 2.92L8.17 2.92L8.17 11.08L8.17 11.08Q8.17 12.10 7.12 12.10L7.12 12.10L7.12 13.27L8.16 13.27L8.16 13.27Q9.63 13.27 9.63 11.75L9.63 11.75L9.63 2.92ZM9.74 0.66L9.74 0.66L9.74 0.66Q9.74-0.15 8.90-0.15L8.90-0.15L8.90-0.15Q8.05-0.15 8.05 0.66L8.05 0.66L8.05 0.66Q8.05 1.46 8.90 1.46L8.90 1.46L8.90 1.46Q9.74 1.46 9.74 0.66ZM15.17 9.48L15.17 9.48Q15.17 10.65 13.36 10.65L13.36 10.65L13.36 10.65Q10.79 10.65 10.79 8.75L10.79 8.75L10.79 7.76L10.79 7.76Q10.79 5.95 13.71 5.95L13.71 5.95L13.71 5.95Q15.17 5.95 15.17 5.25L15.17 5.25L15.17 4.96L15.17 4.96Q15.17 3.94 13.71 3.94L13.71 3.94L13.71 3.94Q12.45 3.94 12.45 4.96L12.45 4.96L12.45 5.54L11.00 5.54L11.00 4.67L11.00 4.67Q11.00 2.77 13.71 2.77L13.71 2.77L13.71 2.77Q16.63 2.77 16.63 4.67L16.63 4.67L16.63 9.48L16.63 9.48Q16.63 10.50 17.21 10.50L17.21 10.50L15.75 10.50L15.75 10.50Q15.17 10.50 15.17 9.48L15.17 9.48ZM15.17 6.59L15.17 6.59Q15.17 7.12 13.71 7.12L13.71 7.12L13.71 7.12Q12.25 7.12 12.25 8.05L12.25 8.05L12.25 8.46L12.25 8.46Q12.25 9.48 13.71 9.48L13.71 9.48L13.71 9.48Q15.17 9.48 15.17 8.10L15.17 8.10L15.17 6.59ZM17.79 2.92L17.79 10.50L19.25 10.50L19.25 4.96L19.25 4.96Q19.25 3.94 21 3.94L21 3.94L21 3.94Q22.75 3.94 22.75 4.96L22.75 4.96L22.75 10.50L24.21 10.50L24.21 4.67L24.21 4.67Q24.21 2.77 21.73 2.77L21.73 2.77L21.73 2.77Q19.25 2.77 19.25 3.94L19.25 3.94L19.25 2.92L17.79 2.92ZM30.33 2.92L31.79 2.92L31.79 11.67L31.79 11.67Q31.79 13.27 28.58 13.27L28.58 13.27L28.58 13.27Q25.38 13.27 25.38 11.67L25.38 11.67L25.38 10.94L26.83 10.94L26.83 11.38L26.83 11.38Q26.83 12.10 28.58 12.10L28.58 12.10L28.58 12.10Q30.33 12.10 30.33 11.38L30.33 11.38L30.33 9.48L30.33 9.48Q30.33 10.65 27.85 10.65L27.85 10.65L27.85 10.65Q25.38 10.65 25.38 8.75L25.38 8.75L25.38 4.67L25.38 4.67Q25.38 2.77 27.85 2.77L27.85 2.77L27.85 2.77Q30.33 2.77 30.33 3.94L30.33 3.94L30.33 2.92ZM30.33 8.46L30.33 8.46L30.33 4.96L30.33 4.96Q30.33 3.94 28.58 3.94L28.58 3.94L28.58 3.94Q26.83 3.94 26.83 4.96L26.83 4.96L26.83 8.46L26.83 8.46Q26.83 9.48 28.58 9.48L28.58 9.48L28.58 9.48Q30.33 9.48 30.33 8.46ZM37.92 4.96L37.92 8.46L37.92 8.46Q37.92 9.48 36.17 9.48L36.17 9.48L36.17 9.48Q34.42 9.48 34.42 8.46L34.42 8.46L34.42 4.96L34.42 4.96Q34.42 3.94 36.17 3.94L36.17 3.94L36.17 3.94Q37.92 3.94 37.92 4.96L37.92 4.96ZM39.38 8.75L39.38 4.67L39.38 4.67Q39.38 2.77 36.17 2.77L36.17 2.77L36.17 2.77Q32.96 2.77 32.96 4.67L32.96 4.67L32.96 8.75L32.96 8.75Q32.96 10.65 36.17 10.65L36.17 10.65L36.17 10.65Q39.38 10.65 39.38 8.75L39.38 8.75ZM40.54 0L40.54 10.50L45.50 10.50L45.50 10.50Q47.54 10.50 47.54 8.75L47.54 8.75L47.54 6.71L47.54 6.71Q47.54 4.96 45.79 4.96L45.79 4.96L45.79 4.96Q47.54 4.96 47.54 3.50L47.54 3.50L47.54 1.75L47.54 1.75Q47.54 0 45.50 0L45.50 0L40.54 0ZM44.92 4.38L42.00 4.38L42.00 1.17L44.92 1.17L44.92 1.17Q46.08 1.17 46.08 2.04L46.08 2.04L46.08 3.50L46.08 3.50Q46.08 4.38 44.92 4.38L44.92 4.38ZM44.92 5.54L44.92 5.54Q46.08 5.54 46.08 6.42L46.08 6.42L46.08 8.46L46.08 8.46Q46.08 9.33 44.92 9.33L44.92 9.33L42.00 9.33L42.00 5.54L44.92 5.54ZM48.71 10.50L50.17 10.50L50.17-0.29L48.71-0.29L48.71 10.50ZM56.29 4.96L56.29 8.46L56.29 8.46Q56.29 9.48 54.54 9.48L54.54 9.48L54.54 9.48Q52.79 9.48 52.79 8.46L52.79 8.46L52.79 4.96L52.79 4.96Q52.79 3.94 54.54 3.94L54.54 3.94L54.54 3.94Q56.29 3.94 56.29 4.96L56.29 4.96ZM57.75 8.75L57.75 4.67L57.75 4.67Q57.75 2.77 54.54 2.77L54.54 2.77L54.54 2.77Q51.33 2.77 51.33 4.67L51.33 4.67L51.33 8.75L51.33 8.75Q51.33 10.65 54.54 10.65L54.54 10.65L54.54 10.65Q57.75 10.65 57.75 8.75L57.75 8.75ZM63.88 2.92L65.33 2.92L65.33 11.67L65.33 11.67Q65.33 13.27 62.13 13.27L62.13 13.27L62.13 13.27Q58.92 13.27 58.92 11.67L58.92 11.67L58.92 10.94L60.38 10.94L60.38 11.38L60.38 11.38Q60.38 12.10 62.13 12.10L62.13 12.10L62.13 12.10Q63.88 12.10 63.88 11.38L63.88 11.38L63.88 9.48L63.88 9.48Q63.88 10.65 61.40 10.65L61.40 10.65L61.40 10.65Q58.92 10.65 58.92 8.75L58.92 8.75L58.92 4.67L58.92 4.67Q58.92 2.77 61.40 2.77L61.40 2.77L61.40 2.77Q63.88 2.77 63.88 3.94L63.88 3.94L63.88 2.92ZM63.88 8.46L63.88 8.46L63.88 4.96L63.88 4.96Q63.88 3.94 62.13 3.94L62.13 3.94L62.13 3.94Q60.38 3.94 60.38 4.96L60.38 4.96L60.38 8.46L60.38 8.46Q60.38 9.48 62.13 9.48L62.13 9.48L62.13 9.48Q63.88 9.48 63.88 8.46Z"></path></g><!----><g data-v-423bf9ae="" id="a79a0e97-d751-4f36-94db-5bae693c3e3e" transform="matrix(2.7864610337689935,0,0,2.7864610337689935,-93.46804533140534,-93.47170326715721)" stroke="none" fill="white"><path d="M62.771 59.84a16.065 16.065 0 0 0 3.374-9.846c0-6.151-3.46-11.507-8.533-14.231-.047-.026-.097-.047-.146-.069a16.024 16.024 0 0 0-7.465-1.844c-3.44 0-6.729 1.07-9.516 3.097a16.217 16.217 0 0 0-6.63 13.048c0 1.609.239 3.181.688 4.672.012.044.03.086.045.13a16.097 16.097 0 0 0 8.917 9.981A15.92 15.92 0 0 0 50 66.149c5.087 0 9.625-2.372 12.586-6.063.029-.033.063-.059.091-.094.037-.048.062-.101.094-.152zm-.126-9.845c0 2.227-.582 4.317-1.595 6.137-.976-1.321-1.814-3.007-1.972-3.767-.421-1.955-2.184-2.333-3.237-2.558-1.248-.268-2.15-.461-2.761-2.157-.351-.975-.141-1.526.047-1.857.697-1.224 2.671-1.851 3.019-1.917 1.166-.193 1.632-.985 2.002-3.535 2.746 2.321 4.497 5.784 4.497 9.654zM40.9 41.246c.46 1.301.765 2.795.317 3.654-.657 1.262-2.332 3.435-3.854 5.299-.001-.068-.008-.136-.008-.204 0-3.281 1.308-6.412 3.545-8.749zm4.016 20.329a12.605 12.605 0 0 1-6.685-6.96c1.467-1.711 4.9-5.813 6.09-8.098 1.274-2.446.272-5.648-.543-7.524a12.59 12.59 0 0 1 6.223-1.643c1.725 0 3.369.35 4.868.978-.138 1.209-.255 1.947-.338 2.38-1.294.448-3.291 1.438-4.373 3.229-.875 1.449-1.003 3.143-.371 4.897 1.268 3.527 3.905 4.092 5.321 4.395.196.042.441.095.613.144.391 1.451 1.637 3.873 3.146 5.629a12.59 12.59 0 0 1-8.866 3.647c-1.766 0-3.475-.36-5.085-1.074z"></path></g><!----></svg>